<svg xmlns="http://www.w3.org/2000/svg" xmlns:xlink="http://www.w3.org/1999/xlink" viewBox="0 0 64 64"><defs><style>.a{fill:#141934;}.b{fill:url(#a);}.c{fill:url(#b);}.d{fill:url(#c);}.e{fill:url(#d);}.f{fill:url(#e);}.g{fill:url(#f);}.h{fill:url(#g);}.i{fill:url(#h);}</style><linearGradient id="a" x1="32" y1="-18" x2="32" y2="-82" gradientTransform="matrix(1, 0, 0, -1, 0, -18)" gradientUnits="userSpaceOnUse"><stop offset="0" stop-color="#1a295b" stop-opacity="0"/><stop offset="1" stop-color="#66f"/></linearGradient><linearGradient id="b" x1="28.96" y1="48.74" x2="28.96" y2="14.07" gradientUnits="userSpaceOnUse"><stop offset="0" stop-color="#6533ff"/><stop offset="1" stop-color="#29c2e1"/></linearGradient><linearGradient id="c" x1="25.97" y1="48.74" x2="25.97" y2="14.07" xlink:href="#b"/><linearGradient id="d" x1="23.01" y1="48.74" x2="23.01" y2="14.07" xlink:href="#b"/><linearGradient id="e" x1="19.2" y1="48.74" x2="19.2" y2="14.07" xlink:href="#b"/><linearGradient id="f" x1="32.03" y1="48.74" x2="32.03" y2="14.07" xlink:href="#b"/><linearGradient id="g" x1="38.29" y1="48.74" x2="38.29" y2="14.07" xlink:href="#b"/><linearGradient id="h" x1="30.26" y1="48.74" x2="30.26" y2="14.07" xlink:href="#b"/></defs><title>icons_1</title><path class="a" d="M52,64H12A12,12,0,0,1,0,52V12A12,12,0,0,1,12,0H52A12,12,0,0,1,64,12V52A12,12,0,0,1,52,64Z"/><path class="b" d="M52,2A10,10,0,0,1,62,12V52A10,10,0,0,1,52,62H12A10,10,0,0,1,2,52V12A10,10,0,0,1,12,2H52m0-2H12A12,12,0,0,0,0,12V52A12,12,0,0,0,12,64H52A12,12,0,0,0,64,52V12A12,12,0,0,0,52,0Z"/><path class="c" d="M29.42,44a1.15,1.15,0,0,0-.82.34l-.93.93a1.16,1.16,0,0,0,0,1.65,1.2,1.2,0,0,0,1.64,0l.93-.93a1.17,1.17,0,0,0-.82-2Z"/><path class="d" d="M26.82,39.89a1.15,1.15,0,0,0-.82.34l-1.69,1.69A1.16,1.16,0,0,0,26,43.57l1.69-1.69a1.18,1.18,0,0,0,0-1.65A1.15,1.15,0,0,0,26.82,39.89Z"/><path class="e" d="M24.33,35.7a1.15,1.15,0,0,0-.82.34l-2.63,2.63a1.15,1.15,0,0,0,0,1.64,1.18,1.18,0,0,0,1.64,0l2.63-2.63a1.16,1.16,0,0,0-.82-2Z"/><path class="f" d="M19.72,33.69a1.15,1.15,0,0,0-.82.34l-1,1.06a1.16,1.16,0,0,0,0,1.64,1.18,1.18,0,0,0,1.64,0l1.06-1a1.18,1.18,0,0,0,0-1.65A1.16,1.16,0,0,0,19.72,33.69Z"/><path class="g" d="M30.77,48.59a2.19,2.19,0,0,0,1.28.41,1.48,1.48,0,0,0,1.19-1,2,2,0,0,0-.38-1.48Z"/><path class="h" d="M41.23,15a16.26,16.26,0,0,1-1.65.6C36,16.73,31,17.07,28.25,17.26c-.78,0-1.3.08-1.56.12a1.49,1.49,0,0,0-1,.59,1.46,1.46,0,0,0-.17,1.61,1.5,1.5,0,0,0,1.44.9H28c1.8,0,3.55.05,5.33.06a1.35,1.35,0,0,1,1,.43c3.36,3.38,6.62,6.63,10.52,10.53l1.91,1.91.14.14a23.48,23.48,0,0,0,4.31-8.46Z"/><path class="i" d="M27.63,37.72a3.45,3.45,0,0,1,2.49,2.4.74.74,0,0,0,.18.25c.51.51,1,1,1.52,1.52l1.93,1.93C34.82,44.89,36,46,37.11,47.17a1.69,1.69,0,0,0,1.65.49,1.59,1.59,0,0,0,1.1-1.23A1.7,1.7,0,0,0,39.35,45l-2.83-2.83-2.58-2.58c-.44-.43-.88-.88-1.31-1.32A1.24,1.24,0,0,1,32.29,37a1.17,1.17,0,0,1,.83-.82,1.27,1.27,0,0,1,1.3.43l3.29,3.29,3.46,3.47L43,45.15a1.83,1.83,0,0,0,1.76.44,1.58,1.58,0,0,0,1-1.29,1.9,1.9,0,0,0-.55-1.41l-4.75-4.75-3.71-3.71a2,2,0,0,1-.3-.34A1.17,1.17,0,0,1,36.25,33a1.2,1.2,0,0,1,.82-.76,1.26,1.26,0,0,1,1.3.44l6.45,6.46a3.27,3.27,0,0,0,.42.37,1.67,1.67,0,0,0,1.84,0A1.61,1.61,0,0,0,47.74,38,1.86,1.86,0,0,0,47.13,37C42.58,32.42,38,27.86,33.18,23a.57.57,0,0,0-.46-.2l-1.24,0c-1.39,0-3.13,0-4.78-.08a3.78,3.78,0,0,1-3.36-5.14,6,6,0,0,1,.52-1l0-.05.11-.17-1-.75L12.77,25.93c.21.29.42.56.62.81.75.91,1.26,1.48,1.75,2,.34.37.72.79,1.18,1.33a3.14,3.14,0,0,1,.49.94c.17.43.31.88.45,1.31l0,.13a3.31,3.31,0,0,1,3.13-.95A3.36,3.36,0,0,1,23,33.71a3.32,3.32,0,0,1,3.5.48A3.36,3.36,0,0,1,27.63,37.72Z"/></svg>