<svg xmlns="http://www.w3.org/2000/svg" xmlns:xlink="http://www.w3.org/1999/xlink" viewBox="0 0 64 64"><defs><style>.a{fill:#141934;}.b{fill:url(#a);}.c{fill:url(#b);}</style><linearGradient id="a" x1="32" y1="150" x2="32" y2="86" gradientTransform="matrix(1, 0, 0, -1, 0, 150)" gradientUnits="userSpaceOnUse"><stop offset="0" stop-color="#1a295b" stop-opacity="0"/><stop offset="1" stop-color="#0185ff"/></linearGradient><linearGradient id="b" x1="32" y1="15.45" x2="32" y2="45.27" gradientUnits="userSpaceOnUse"><stop offset="0" stop-color="#1ab5e9"/><stop offset="1" stop-color="#0166fe"/></linearGradient></defs><title>icons_1</title><path class="a" d="M52,64H12A12,12,0,0,1,0,52V12A12,12,0,0,1,12,0H52A12,12,0,0,1,64,12V52A12,12,0,0,1,52,64Z"/><path class="b" d="M52,2A10,10,0,0,1,62,12V52A10,10,0,0,1,52,62H12A10,10,0,0,1,2,52V12A10,10,0,0,1,12,2H52m0-2H12A12,12,0,0,0,0,12V52A12,12,0,0,0,12,64H52A12,12,0,0,0,64,52V12A12,12,0,0,0,52,0Z"/><polygon class="c" points="25.4 32.6 25.4 45.8 38.6 45.8 38.6 32.6 47.4 32.6 31.89 15 16.6 32.6 25.4 32.6"/></svg>