<svg id="b4b6535a-a93b-4d4d-9ce8-29df5e957b96" data-name="Layer 1" xmlns="http://www.w3.org/2000/svg" xmlns:xlink="http://www.w3.org/1999/xlink" viewBox="0 0 40 40">
  <defs>
    <style>
      .a1383794-d06b-457f-ad8b-d7146286c93f {
        fill: #111630;
      }

      .a3799dc7-9187-44c5-9e6f-11367100d3e6 {
        fill: #16d928;
      }

      .a85a6252-e740-478e-8e99-5230ec3bb786 {
        fill: #fff;
      }

      .b4b7f3ef-71a7-4f93-8068-232e61622f34 {
        fill: url(#e5dea4f0-8e28-420f-8955-c79803b75bb1);
      }

      .e66b72a7-3075-4dde-af9a-d1a9977ac921 {
        fill: url(#f7e6e371-d20b-4717-b72d-b4ebee710820);
      }
    </style>
    <linearGradient id="e5dea4f0-8e28-420f-8955-c79803b75bb1" x1="13.15" y1="251.4447" x2="13.15" y2="243.9821" gradientTransform="matrix(1, 0, 0, -1, 0, 267)" gradientUnits="userSpaceOnUse">
      <stop offset="0" stop-color="#fff"/>
      <stop offset="1" stop-color="#fff" stop-opacity="0"/>
    </linearGradient>
    <linearGradient id="f7e6e371-d20b-4717-b72d-b4ebee710820" x1="26.95" y1="242.8148" x2="26.95" y2="250.06461" xlink:href="#e5dea4f0-8e28-420f-8955-c79803b75bb1"/>
  </defs>
  <title>zano</title>
  <circle class="a1383794-d06b-457f-ad8b-d7146286c93f" cx="20" cy="20" r="18.5"/>
  <path class="a3799dc7-9187-44c5-9e6f-11367100d3e6" d="M20,3A17,17,0,1,1,3,20,16.98573,16.98573,0,0,1,20,3m0-3A20,20,0,1,0,40,20,20.0588,20.0588,0,0,0,20,0Z"/>
  <g>
    <polygon class="a85a6252-e740-478e-8e99-5230ec3bb786" points="24 31.1 12.5 15.2 16.1 8.9 27.5 24.8 24 31.1"/>
    <polygon class="b4b7f3ef-71a7-4f93-8068-232e61622f34" points="12.5 15.2 18.3 23 8 23 12.5 15.2"/>
    <polygon class="e66b72a7-3075-4dde-af9a-d1a9977ac921" points="27.5 24.8 21.9 16.9 32 16.9 27.5 24.8"/>
  </g>
</svg>
