<svg xmlns="http://www.w3.org/2000/svg" viewBox="0 0 32 32"><linearGradient id="a" gradientUnits="userSpaceOnUse" x1="16" y1="32" x2="16" y2="0" gradientTransform="matrix(1 0 0 -1 0 32)"><stop offset="0" stop-color="#1eced0"/><stop offset=".5" stop-color="#8aa9f4"/><stop offset="1" stop-color="#6a44fb"/></linearGradient><path d="M31.9 17.1c-.5-1.5-2.1-2.3-3.6-1.8l-2.9 1c-.6-2-1.3-4-2-6 1.8-.6 2.9-1 2.9-1 1.5-.5 2.3-2.1 1.8-3.6-.5-1.4-2.1-2.2-3.5-1.7l-2.9 1c-.6-1.8-1-2.9-1-2.9-.4-1.6-2-2.4-3.5-1.9s-2.3 2.1-1.9 3.6l1 2.9-6 1.9c-.6-1.9-1-3-1-3-.4-1.5-2-2.3-3.5-1.8S3.4 5.9 3.9 7.4l1 2.9-3 1c-1.4.5-2.2 2-1.8 3.5s2 2.4 3.5 1.9l3-1 1.9 6-3 1c-1.4.5-2.2 2-1.8 3.5s2 2.5 3.5 2l3-1 1 3c.5 1.4 2 2.2 3.5 1.8 1.5-.4 2.5-2 2-3.5l-1-3c2-.6 4.1-1.3 6-2l1 3c.5 1.4 2 2.2 3.5 1.8 1.5-.4 2.5-2 2-3.5l-1-3c1.8-.6 2.9-1 2.9-1 1.4-.6 2.2-2.2 1.8-3.7zM14 20c-.6-2-1.3-4-2-6 2-.6 4.1-1.3 6-2l2 6-6 2z" fill="url(#a)"/></svg>