<?xml version="1.0" encoding="utf-8"?>
<!-- Generator: Adobe Illustrator 23.0.1, SVG Export Plug-In . SVG Version: 6.00 Build 0)  -->
<svg version="1.1" id="Layer_1" xmlns="http://www.w3.org/2000/svg" xmlns:xlink="http://www.w3.org/1999/xlink" x="0px" y="0px"
	 viewBox="0 0 32 32" style="enable-background:new 0 0 32 32;" xml:space="preserve">
<style type="text/css">
	.st0{fill:url(#disq_1_);}
</style>
<linearGradient id="disq_1_" gradientUnits="userSpaceOnUse" x1="16" y1="28" x2="16" y2="4" gradientTransform="matrix(1 0 0 -1 0 32)">
	<stop  offset="0" style="stop-color:#1ECED0"/>
	<stop  offset="0.5" style="stop-color:#8AA9F4"/>
	<stop  offset="1" style="stop-color:#6A44FB"/>
</linearGradient>
<path id="disq" class="st0" d="M27.8,6.9c0,0-2.3-2.5-7.5-2.9v0.8c0,0,2.9-0.2,6.4,3.5C24,6.2,20.2,5,15.9,5s-8,1.2-10.7,3.2
	c3.5-3.6,6.4-3.5,6.4-3.5V4C6.4,4.4,4.1,6.9,4.1,6.9c-3.9,5.3-4.1,17-4.1,17C3.7,28.6,8.4,28,8.4,28l1.7-2.6
	c-2.2-0.6-3.8-2.1-4.7-3.2c2.7,2,6.5,3.2,10.6,3.2s7.9-1.2,10.6-3.2c-1,1.1-2.6,2.6-4.7,3.2l1.7,2.6c0,0,4.7,0.6,8.4-4.1
	C32,23.9,31.8,12.2,27.8,6.9z M11,20.6c-1.5,0-2.7-1.3-2.7-3s1.2-3,2.7-3s2.7,1.3,2.7,3S12.5,20.6,11,20.6z M21,20.6
	c-1.5,0-2.7-1.3-2.7-3s1.2-3,2.7-3s2.7,1.3,2.7,3S22.5,20.6,21,20.6z"/>
</svg>
