<svg xmlns="http://www.w3.org/2000/svg" viewBox="0 0 32 32"><linearGradient id="a" gradientUnits="userSpaceOnUse" x1="16" y1="29" x2="16" y2="3" gradientTransform="matrix(1 0 0 -1 0 32)"><stop offset="0" stop-color="#1eced0"/><stop offset=".5" stop-color="#8aa9f4"/><stop offset="1" stop-color="#6a44fb"/></linearGradient><path d="M3.8 8.3c0-.4-.1-.8-.4-1.1l-3-3.7V3h9.3l7.2 16.1L23.2 3H32v.6l-2.6 2.5c-.2.2-.3.5-.3.7v18.4c0 .3.1.6.3.7l2.5 2.5v.6H19.4v-.6l2.6-2.6c.3-.2.3-.3.3-.7V10.3L15 28.9h-1L5.7 10.3v12.5c-.1.5.1 1 .5 1.4l3.4 4.2v.5H0v-.5l3.4-4.2c.4-.4.5-.9.4-1.4V8.3z" fill="url(#a)"/></svg>