<svg xmlns="http://www.w3.org/2000/svg" viewBox="0 0 32 32"><linearGradient id="a" gradientUnits="userSpaceOnUse" x1="15.962" y1="29.551" x2="15.962" y2="2.672"><stop offset="0" stop-color="#1eced0"/><stop offset=".5" stop-color="#8aa9f4"/><stop offset="1" stop-color="#6a44fb"/></linearGradient><path d="M31.1 6.3c-.2 0-.3.1-.5.1-1 .2-1.1-.1-.4-.8.3-.3.6-.7.8-1 .5-.8.1-1.2-.8-.8-.3.1-.7.3-1 .4-.9.3-2.3-.2-3.1-.7-1.1-.7-2.3-1-3.6-1-1.9 0-3.5.7-4.8 2s-2 2.9-2 4.8v.8c0 .4-.7.7-1.7.6-2.1-.3-4.2-.9-6.1-1.9s-3.6-2.2-5-3.7c-.7-.7-1.6-.6-1.9.3C.8 6 .8 6.6.8 7.2c0 1.2.3 2.3.8 3.2.3.5.6.9 1 1.3.6.7.5 1.1-.3.8-.9-.2-1.5-.6-1.5-.6 0 1.6.5 3.1 1.6 4.3.6.8 1.4 1.4 2.2 1.8.9.4 1.3.7.8.7-.4.3-.7.3-1 .3h-.6c-.4 0-.4.7.1 1.5.4.7 1 1.2 1.6 1.7.7.5 1.4.9 2.2 1.1 1 .3 1.1.8.3 1.3-2.1 1.3-4.4 1.9-7 1.9H.2c-.5 0-.2.4.7.8 2.8 1.4 5.7 2.2 8.9 2.2 2.4 0 4.7-.4 6.8-1.1 2.1-.8 4-1.8 5.5-3.1s2.8-2.8 3.9-4.4c1.1-1.7 1.9-3.4 2.4-5.2.5-1.8.8-3.6.8-5.5v-.4c0-.2.6-.9 1.4-1.6.3-.3.6-.6.9-1 .8-.8.5-1.2-.4-.9z" fill="url(#a)"/><linearGradient id="b" gradientUnits="userSpaceOnUse" x1="91.962" y1="23.551" x2="91.962" y2="-3.328" gradientTransform="matrix(1 0 0 -1 -76 26)"><stop offset="0" stop-color="#1eced0"/><stop offset=".5" stop-color="#8aa9f4"/><stop offset="1" stop-color="#6a44fb"/></linearGradient><path d="M31.1 6.3c-.2 0-.3.1-.5.1-1 .2-1.1-.1-.4-.8.3-.3.6-.7.8-1 .5-.8.1-1.2-.8-.8-.3.1-.7.3-1 .4-.9.3-2.3-.2-3.1-.7-1.1-.7-2.3-1-3.6-1-1.9 0-3.5.7-4.8 2s-2 2.9-2 4.8v.8c0 .4-.7.7-1.7.6-2.1-.3-4.2-.9-6.1-1.9s-3.6-2.2-5-3.7c-.7-.7-1.6-.6-1.9.3C.8 6 .8 6.6.8 7.2c0 1.2.3 2.3.8 3.2.3.5.6.9 1 1.3.6.7.5 1.1-.3.8-.9-.2-1.5-.6-1.5-.6 0 1.6.5 3.1 1.6 4.3.6.8 1.4 1.4 2.2 1.8.9.4 1.3.7.8.7-.4.3-.7.3-1 .3h-.6c-.4 0-.4.7.1 1.5.4.7 1 1.2 1.6 1.7.7.5 1.4.9 2.2 1.1 1 .3 1.1.8.3 1.3-2.1 1.3-4.4 1.9-7 1.9H.2c-.5 0-.2.4.7.8 2.8 1.4 5.7 2.2 8.9 2.2 2.4 0 4.7-.4 6.8-1.1 2.1-.8 4-1.8 5.5-3.1s2.8-2.8 3.9-4.4c1.1-1.7 1.9-3.4 2.4-5.2.5-1.8.8-3.6.8-5.5v-.4c0-.2.6-.9 1.4-1.6.3-.3.6-.6.9-1 .8-.8.5-1.2-.4-.9z" fill="url(#b)"/></svg>