<?xml version="1.0" encoding="utf-8"?>
<!-- Generator: Adobe Illustrator 23.0.1, SVG Export Plug-In . SVG Version: 6.00 Build 0)  -->
<svg version="1.1" id="Layer_1" xmlns="http://www.w3.org/2000/svg" xmlns:xlink="http://www.w3.org/1999/xlink" x="0px" y="0px"
	 viewBox="0 0 32 32" style="enable-background:new 0 0 32 32;" xml:space="preserve">
<style type="text/css">
	.st0{fill:url(#SVGID_1_);}
	.st1{fill:url(#SVGID_2_);}
	.st2{fill:url(#SVGID_3_);}
	.st3{fill:url(#SVGID_4_);}
	.st4{fill:url(#SVGID_5_);}
	.st5{fill:url(#SVGID_6_);}
	.st6{fill:url(#SVGID_7_);}
	.st7{fill:url(#SVGID_8_);}
	.st8{fill:url(#SVGID_9_);}
</style>
<linearGradient id="SVGID_1_" gradientUnits="userSpaceOnUse" x1="16" y1="1.8084" x2="16" y2="30.0637">
	<stop  offset="6.576487e-03" style="stop-color:#1ECED0"/>
	<stop  offset="0.5" style="stop-color:#8AA9F4"/>
	<stop  offset="0.9976" style="stop-color:#6A44FB"/>
</linearGradient>
<path class="st0" d="M29.4,9.2c0.3-0.7,1.1-3.4-0.3-7.1c0,0-2.1-0.7-6.9,2.8c-2-0.6-4.1-0.7-6.3-0.7c-2.1,0-4.3,0.1-6.3,0.7
	C5,1.3,2.9,2.1,2.9,2.1C1.5,5.8,2.3,8.5,2.6,9.2C1,11.1,0,13.4,0,16.4C0,27.5,6.7,30,16,30c9.3,0,16-2.5,16-13.6
	C32,13.4,31,11.1,29.4,9.2 M16,27.9c-6.6,0-12-0.3-12-7.2c0-1.6,0.8-3.2,2-4.4c2.1-2.1,5.8-1,9.9-1c4.1,0,7.8-1.1,9.9,1
	c1.3,1.3,2.1,2.8,2.1,4.4C28,27.5,22.6,27.9,16,27.9 M11,17.1c-1.3,0-2.4,1.7-2.4,3.8c0,2.1,1.1,3.9,2.4,3.9c1.3,0,2.4-1.7,2.4-3.9
	C13.4,18.8,12.3,17.1,11,17.1 M21,17.1c-1.3,0-2.4,1.7-2.4,3.8c0,2.1,1.1,3.9,2.4,3.9c1.3,0,2.4-1.7,2.4-3.9
	C23.4,18.8,22.4,17.1,21,17.1z"/>
</svg>
