<?xml version="1.0" encoding="utf-8"?>
<!-- Generator: Adobe Illustrator 23.0.1, SVG Export Plug-In . SVG Version: 6.00 Build 0)  -->
<svg version="1.1" id="Layer_1" xmlns="http://www.w3.org/2000/svg" xmlns:xlink="http://www.w3.org/1999/xlink" x="0px" y="0px"
	 viewBox="0 0 64 26" style="enable-background:new 0 0 64 26;" xml:space="preserve">
<style type="text/css">
	.st0{fill:url(#SVGID_1_);}
	.st1{fill:url(#SVGID_2_);}
</style>
<linearGradient id="SVGID_1_" gradientUnits="userSpaceOnUse" x1="3.518432e-04" y1="12.9644" x2="63.9314" y2="13.2138">
	<stop  offset="0" style="stop-color:#6533FF"/>
	<stop  offset="1" style="stop-color:#29C2E1"/>
</linearGradient>
<path class="st0" d="M14.2,8.8H4.2C1.9,8.8,0,10.7,0,13c0,2.3,1.9,4.2,4.2,4.2h10.1c2.3,0,4.2-1.9,4.2-4.2
	C18.4,10.7,16.6,8.8,14.2,8.8z"/>
<linearGradient id="SVGID_2_" gradientUnits="userSpaceOnUse" x1="-7.150023e-03" y1="12.7964" x2="63.9239" y2="13.0458">
	<stop  offset="0" style="stop-color:#6533FF"/>
	<stop  offset="1" style="stop-color:#29C2E1"/>
</linearGradient>
<path class="st1" d="M62.8,10.1l-7.7-7.8c-1.2-1.2-3-1.6-4.6-0.9C49,2,48,3.5,48,5.2v3.6H29.2c-2.3,0-4.2,1.9-4.2,4.2
	c0,2.3,1.9,4.2,4.2,4.2H48v3.6c0,1.7,1,3.2,2.6,3.9c0.5,0.2,1,0.3,1.6,0.3c1.1,0,2.2-0.4,3-1.2l7.7-7.8
	C64.4,14.3,64.4,11.7,62.8,10.1z"/>
</svg>
