<svg xmlns="http://www.w3.org/2000/svg" viewBox="0 0 32 32"><linearGradient id="a" gradientUnits="userSpaceOnUse" x1="16.013" y1="25.165" x2="16.013" y2="3.441" gradientTransform="matrix(1 0 0 -1 0 32)"><stop offset="0" stop-color="#1eced0"/><stop offset=".5" stop-color="#8aa9f4"/><stop offset="1" stop-color="#6a44fb"/></linearGradient><path d="M24.5 28.7c.4.3 1 .4 1.5.2s.8-.6 1-1.1c1.2-5.3 4-18.7 5-23.6.1-.4-.1-.7-.4-1-.3-.2-.7-.3-1.1-.2C25 5.1 7.8 11.4.7 13.9c-.4.2-.7.6-.7 1.1s.3.9.8 1c3.2.9 7.3 2.2 7.3 2.2s1.9 5.7 3 8.6c.1.4.4.7.8.7.4.1.8 0 1.1-.3 1.6-1.5 4.1-3.8 4.1-3.8s4.7 3.4 7.4 5.3zM9.8 17.4l2.2 7.2.5-4.6s8.6-7.6 13.6-11.9c.1-.1.2-.3.1-.5-.1-.1-.3-.2-.5-.1L9.8 17.4z" fill-rule="evenodd" clip-rule="evenodd" fill="url(#a)"/></svg>