<?xml version="1.0" encoding="utf-8"?>
<!-- Generator: Adobe Illustrator 23.0.1, SVG Export Plug-In . SVG Version: 6.00 Build 0)  -->
<svg version="1.1" xmlns="http://www.w3.org/2000/svg" xmlns:xlink="http://www.w3.org/1999/xlink" x="0px" y="0px"
	 viewBox="0 0 150 150" style="enable-background:new 0 0 150 150;" xml:space="preserve">
<style type="text/css">
	.st0{fill:#141934;}
	.st1{fill:url(#SVGID_1_);}
	.st2{fill:url(#SVGID_2_);}
	.st3{fill:url(#SVGID_3_);}
	.st4{filter:url(#Adobe_OpacityMaskFilter);}
	.st5{mask:url(#SVGID_4_);}
	.st6{fill:url(#SVGID_5_);}
	.st7{fill:url(#SVGID_6_);}
	.st8{fill:url(#SVGID_7_);}
	.st9{filter:url(#Adobe_OpacityMaskFilter_1_);}
	.st10{mask:url(#SVGID_8_);}
	.st11{fill:url(#SVGID_9_);}
	.st12{fill:url(#SVGID_10_);}
	.st13{fill:url(#SVGID_11_);}
	.st14{fill:url(#SVGID_12_);}
	.st15{fill:url(#SVGID_13_);}
	.st16{fill:url(#SVGID_14_);}
	.st17{fill:url(#SVGID_15_);}
</style>
<g id="dev">
</g>
<g id="users">
</g>
<g id="papers">
</g>
<g id="whatis">
	<path class="st0" d="M17,49.5l0,51c0,4.9,2.6,9.5,6.9,11.9l44.2,25.5c4.3,2.5,9.5,2.5,13.8,0l44.2-25.5c4.3-2.5,6.9-7,6.9-11.9v-51
		c0-4.9-2.6-9.5-6.9-11.9L81.9,12.1c-4.3-2.5-9.5-2.5-13.8,0L23.9,37.6C19.7,40,17,44.6,17,49.5z"/>
	<linearGradient id="SVGID_1_" gradientUnits="userSpaceOnUse" x1="75" y1="146.0298" x2="75" y2="3.9705">
		<stop  offset="0" style="stop-color:#0185FF"/>
		<stop  offset="0.6" style="stop-color:#0180F6"/>
		<stop  offset="1" style="stop-color:#1C2A5F;stop-opacity:0"/>
	</linearGradient>
	<path class="st1" d="M75,146c-2.6,0-5.1-0.7-7.4-2l-48.7-28.1c-4.6-2.6-7.4-7.5-7.4-12.8V46.9c0-5.3,2.8-10.2,7.4-12.8L67.6,5.9
		c4.6-2.6,10.2-2.6,14.8,0l48.7,28.1c4.6,2.6,7.4,7.5,7.4,12.8v56.3c0,5.3-2.8,10.2-7.4,12.8l-48.7,28.1C80.1,145.4,77.6,146,75,146
		z M75,6c-2.2,0-4.4,0.6-6.4,1.7L19.9,35.8c-3.9,2.3-6.4,6.5-6.4,11.1v56.3c0,4.6,2.4,8.8,6.4,11.1l48.7,28.1
		c3.9,2.3,8.8,2.3,12.8,0l48.7-28.1c3.9-2.3,6.4-6.5,6.4-11.1V46.9c0-4.6-2.4-8.8-6.4-11.1L81.4,7.7C79.4,6.5,77.2,6,75,6z"/>
	<linearGradient id="SVGID_2_" gradientUnits="userSpaceOnUse" x1="75" y1="146.0532" x2="75" y2="12.9158">
		<stop  offset="0" style="stop-color:#0185FF"/>
		<stop  offset="0.5" style="stop-color:#0586FF;stop-opacity:0.5"/>
		<stop  offset="1" style="stop-color:#141934;stop-opacity:0"/>
	</linearGradient>
	<path class="st2" d="M75,14.9c7.8,0,15.1,3,20.6,8.5L147.2,75l-66.8,66.8c-1.4,1.4-3.3,2.2-5.3,2.2c-2,0-3.9-0.8-5.3-2.2L2.8,75
		l51.5-51.5C59.9,18,67.2,14.9,75,14.9 M75,12.9c-8,0-16,3-22,9.1L0,75l68.3,68.3c1.9,1.9,4.3,2.8,6.7,2.8s4.9-0.9,6.7-2.8L150,75
		L97,22C91,16,83,12.9,75,12.9L75,12.9z"/>
	<g>
		<linearGradient id="SVGID_3_" gradientUnits="userSpaceOnUse" x1="74.1545" y1="96.3202" x2="74.1545" y2="52.976">
			<stop  offset="0" style="stop-color:#0084FF"/>
			<stop  offset="1" style="stop-color:#00B1FF"/>
		</linearGradient>
		<circle class="st3" cx="74.2" cy="92.5" r="4"/>
		<linearGradient id="SVGID_4_" gradientUnits="userSpaceOnUse" x1="74.1545" y1="96.3202" x2="74.1545" y2="52.9759">
			<stop  offset="0" style="stop-color:#0084FF"/>
			<stop  offset="1" style="stop-color:#00B1FF"/>
		</linearGradient>
		<path style="fill:url(#SVGID_4_);" d="M74.2,53c-7,0-12.7,5.7-12.7,12.7c0,1.7,1.4,3.2,3.2,3.2s3.2-1.4,3.2-3.2
			c0-3.5,2.8-6.3,6.3-6.3c3.5,0,6.3,2.8,6.3,6.3c0,3.5-2.8,6.3-6.3,6.3c-1.7,0-3.2,1.4-3.2,3.2v7.9c0,1.7,1.4,3.2,3.2,3.2
			s3.2-1.4,3.2-3.2v-5.1c5.5-1.4,9.5-6.4,9.5-12.3C86.8,58.7,81.1,53,74.2,53z"/>
	</g>
</g>
</svg>
