<svg xmlns="http://www.w3.org/2000/svg" xmlns:xlink="http://www.w3.org/1999/xlink" viewBox="0 0 64 64"><defs><style>.a{fill:#141934;}.b{fill:url(#a);}.c{fill:url(#b);}</style><linearGradient id="a" x1="32" y1="150" x2="32" y2="86" gradientTransform="matrix(1, 0, 0, -1, 0, 150)" gradientUnits="userSpaceOnUse"><stop offset="0" stop-color="#1a295b" stop-opacity="0"/><stop offset="1" stop-color="#28cbdf"/></linearGradient><linearGradient id="b" x1="32" y1="15" x2="32" y2="48.81" gradientUnits="userSpaceOnUse"><stop offset="0" stop-color="#1eced0"/><stop offset="0.5" stop-color="#8aa9f4"/><stop offset="1" stop-color="#6a44fb"/></linearGradient></defs><title>icons_1</title><path class="a" d="M52,64H12A12,12,0,0,1,0,52V12A12,12,0,0,1,12,0H52A12,12,0,0,1,64,12V52A12,12,0,0,1,52,64Z"/><path class="b" d="M52,2A10,10,0,0,1,62,12V52A10,10,0,0,1,52,62H12A10,10,0,0,1,2,52V12A10,10,0,0,1,12,2H52m0-2H12A12,12,0,0,0,0,12V52A12,12,0,0,0,12,64H52A12,12,0,0,0,64,52V12A12,12,0,0,0,52,0Z"/><path class="c" d="M18.16,32.91A10.48,10.48,0,0,0,28.72,35.5c.12.16,11.82,11.88,11.82,11.88a4.9,4.9,0,0,0,6.93-6.93S35.75,28.74,35.6,28.62A10.5,10.5,0,0,0,22.25,15.54l5.57,5.57-1.31,5.37L21.2,27.72l-5.56-5.57A10.5,10.5,0,0,0,18.16,32.91ZM42,43.75a1.81,1.81,0,1,1,1.81,1.81A1.81,1.81,0,0,1,42,43.75Z"/></svg>