<?xml version="1.0" encoding="utf-8"?>
<!-- Generator: Adobe Illustrator 23.0.1, SVG Export Plug-In . SVG Version: 6.00 Build 0)  -->
<svg version="1.1" xmlns="http://www.w3.org/2000/svg" xmlns:xlink="http://www.w3.org/1999/xlink" x="0px" y="0px"
	 viewBox="0 0 64 64" style="enable-background:new 0 0 64 64;" xml:space="preserve">
<style type="text/css">
	.st0{fill:#141934;}
	.st1{fill:url(#SVGID_1_);}
	.st2{fill:url(#SVGID_2_);}
	.st3{fill:url(#SVGID_3_);}
	.st4{fill:url(#SVGID_4_);}
	.st5{fill:url(#SVGID_5_);}
	.st6{fill:url(#SVGID_6_);}
	.st7{fill:url(#SVGID_7_);}
	.st8{fill:url(#SVGID_8_);}
	.st9{fill:url(#SVGID_9_);}
	.st10{fill:url(#SVGID_10_);}
	.st11{display:none;fill:url(#SVGID_11_);}
	.st12{fill:url(#SVGID_12_);}
	.st13{fill:url(#SVGID_13_);}
</style>
<g id="step1">
</g>
<g id="step2">
</g>
<g id="step3">
</g>
<g id="step4">
	<g>
		<path class="st0" d="M52,64H12C5.4,64,0,58.6,0,52V12C0,5.4,5.4,0,12,0h40c6.6,0,12,5.4,12,12v40C64,58.6,58.6,64,52,64z"/>
		<linearGradient id="SVGID_1_" gradientUnits="userSpaceOnUse" x1="32" y1="0" x2="32" y2="64">
			<stop  offset="0" style="stop-color:#1A295B;stop-opacity:0"/>
			<stop  offset="1" style="stop-color:#0185FF"/>
		</linearGradient>
		<path class="st1" d="M52,2c5.5,0,10,4.5,10,10v40c0,5.5-4.5,10-10,10H12C6.5,62,2,57.5,2,52V12C2,6.5,6.5,2,12,2H52 M52,0H12
			C5.4,0,0,5.4,0,12v40c0,6.6,5.4,12,12,12h40c6.6,0,12-5.4,12-12V12C64,5.4,58.6,0,52,0L52,0z"/>
	</g>
	<linearGradient id="SVGID_2_" gradientUnits="userSpaceOnUse" x1="32" y1="15" x2="32" y2="47">
		<stop  offset="0" style="stop-color:#1AB5E9"/>
		<stop  offset="1" style="stop-color:#0166FE"/>
	</linearGradient>
	<path style="display:none;fill:url(#SVGID_2_);" d="M32,15c-7.7,0-14,3.2-14,7.1s6.3,7.1,14,7.1s14-3.2,14-7.1S39.7,15,32,15
		 M18,25.7V31c0,3.9,6.3,7.1,14,7.1s14-3.2,14-7.1v-5.3c0,3.9-6.3,7.1-14,7.1S18,29.6,18,25.7 M18,34.6v5.3c0,3.9,6.3,7.1,14,7.1
		s14-3.2,14-7.1v-5.3c0,3.9-6.3,7.1-14,7.1S18,38.5,18,34.6z"/>
	<g>
		<linearGradient id="SVGID_3_" gradientUnits="userSpaceOnUse" x1="44.2034" y1="16.6445" x2="44.6915" y2="45.4392">
			<stop  offset="0" style="stop-color:#1AB5E9"/>
			<stop  offset="1" style="stop-color:#0166FE"/>
		</linearGradient>
		<path class="st3" d="M51.3,31.9c0-7.8-5.9-14.3-13.5-15.2c5,3.2,8.4,8.8,8.4,15.2s-3.3,12-8.4,15.2C45.4,46.2,51.3,39.8,51.3,31.9
			z"/>
		<linearGradient id="SVGID_4_" gradientUnits="userSpaceOnUse" x1="27.8814" y1="16.5915" x2="28.4014" y2="47.2703">
			<stop  offset="0" style="stop-color:#1AB5E9"/>
			<stop  offset="1" style="stop-color:#0166FE"/>
		</linearGradient>
		<circle class="st4" cx="28.1" cy="31.9" r="15.3"/>
		<g>
			<path class="st0" d="M22.4,28.3L31.5,41l2.5-4.4L24.8,24L22.4,28.3z"/>
			<path class="st0" d="M18.8,34.6h6.8l-3.8-5.2L18.8,34.6z"/>
			<path class="st0" d="M34.6,37.6 M30.8,30.5l3.7,5.2l3-5.2H30.8z"/>
		</g>
	</g>
</g>
</svg>
