<?xml version="1.0" encoding="utf-8"?>
<!-- Generator: Adobe Illustrator 23.0.1, SVG Export Plug-In . SVG Version: 6.00 Build 0)  -->
<svg version="1.1" xmlns="http://www.w3.org/2000/svg" xmlns:xlink="http://www.w3.org/1999/xlink" x="0px" y="0px"
	 viewBox="0 0 64 64" style="enable-background:new 0 0 64 64;" xml:space="preserve">
<style type="text/css">
	.st0{fill:#141934;}
	.st1{fill:url(#SVGID_1_);}
	.st2{fill:url(#SVGID_2_);}
	.st3{fill:url(#SVGID_3_);}
	.st4{fill:url(#SVGID_4_);}
	.st5{fill:url(#SVGID_5_);}
	.st6{fill:url(#SVGID_6_);}
	.st7{fill:url(#SVGID_7_);}
	.st8{fill:url(#SVGID_8_);}
	.st9{fill:url(#SVGID_9_);}
	.st10{fill:url(#SVGID_10_);}
	.st11{display:none;fill:url(#SVGID_11_);}
	.st12{fill:url(#SVGID_12_);}
	.st13{fill:url(#SVGID_13_);}
</style>
<g id="step1">
</g>
<g id="step2">
</g>
<g id="step3">
	<g>
		<path class="st0" d="M52,64H12C5.4,64,0,58.6,0,52V12C0,5.4,5.4,0,12,0h40c6.6,0,12,5.4,12,12v40C64,58.6,58.6,64,52,64z"/>
		<linearGradient id="SVGID_1_" gradientUnits="userSpaceOnUse" x1="32" y1="0" x2="32" y2="64">
			<stop  offset="0" style="stop-color:#1A295B;stop-opacity:0"/>
			<stop  offset="1" style="stop-color:#6666FF"/>
		</linearGradient>
		<path class="st1" d="M52,2c5.5,0,10,4.5,10,10v40c0,5.5-4.5,10-10,10H12C6.5,62,2,57.5,2,52V12C2,6.5,6.5,2,12,2H52 M52,0H12
			C5.4,0,0,5.4,0,12v40c0,6.6,5.4,12,12,12h40c6.6,0,12-5.4,12-12V12C64,5.4,58.6,0,52,0L52,0z"/>
	</g>
	<linearGradient id="SVGID_2_" gradientUnits="userSpaceOnUse" x1="32" y1="44.1877" x2="32" y2="14.9065">
		<stop  offset="0" style="stop-color:#6533FF"/>
		<stop  offset="1" style="stop-color:#29C2E1"/>
	</linearGradient>
	<path class="st2" d="M11,36v-6.3h6.3v-4.2l8.4,7.3l-8.4,7.4V36H11 M53,22.8v2.7H27.8v-2.7L40.4,15L53,22.8 M27.8,40.2H53v4.2H27.8
		V40.2 M38.3,27.6h4.2v10.5h-4.2V27.6 M29.9,27.6h4.2v10.5h-4.2V27.6 M46.7,27.6h4.2v10.5h-4.2V27.6z"/>
</g>
<g id="step4">
</g>
</svg>
