<?xml version="1.0" encoding="utf-8"?>
<!-- Generator: Adobe Illustrator 23.0.1, SVG Export Plug-In . SVG Version: 6.00 Build 0)  -->
<svg version="1.1" xmlns="http://www.w3.org/2000/svg" xmlns:xlink="http://www.w3.org/1999/xlink" x="0px" y="0px"
	 viewBox="0 0 64 64" style="enable-background:new 0 0 64 64;" xml:space="preserve">
<style type="text/css">
	.st0{fill:#141934;}
	.st1{fill:url(#SVGID_1_);}
	.st2{fill:url(#SVGID_2_);}
	.st3{fill:url(#SVGID_3_);}
	.st4{fill:url(#SVGID_4_);}
	.st5{fill:url(#SVGID_5_);}
	.st6{fill:url(#SVGID_6_);}
	.st7{fill:url(#SVGID_7_);}
	.st8{fill:url(#SVGID_8_);}
	.st9{fill:url(#SVGID_9_);}
	.st10{fill:url(#SVGID_10_);}
	.st11{display:none;fill:url(#SVGID_11_);}
	.st12{fill:url(#SVGID_12_);}
	.st13{fill:url(#SVGID_13_);}
</style>
<g id="step1">
</g>
<g id="step2">
	<g>
		<path class="st0" d="M52,64H12C5.4,64,0,58.6,0,52V12C0,5.4,5.4,0,12,0h40c6.6,0,12,5.4,12,12v40C64,58.6,58.6,64,52,64z"/>
		<linearGradient id="SVGID_1_" gradientUnits="userSpaceOnUse" x1="32" y1="0" x2="32" y2="64">
			<stop  offset="0" style="stop-color:#1A295B;stop-opacity:0"/>
			<stop  offset="1" style="stop-color:#0185FF"/>
		</linearGradient>
		<path class="st1" d="M52,2c5.5,0,10,4.5,10,10v40c0,5.5-4.5,10-10,10H12C6.5,62,2,57.5,2,52V12C2,6.5,6.5,2,12,2H52 M52,0H12
			C5.4,0,0,5.4,0,12v40c0,6.6,5.4,12,12,12h40c6.6,0,12-5.4,12-12V12C64,5.4,58.6,0,52,0L52,0z"/>
	</g>
	<linearGradient id="SVGID_2_" gradientUnits="userSpaceOnUse" x1="35.133" y1="14.6171" x2="34.946" y2="45.6602">
		<stop  offset="0" style="stop-color:#1AB5E9"/>
		<stop  offset="1" style="stop-color:#0166FE"/>
	</linearGradient>
	<path class="st2" d="M45.3,23.8h-0.9v11.5c0,1-0.8,2.2-1.9,2.7l-19.8,8.2h22.6c1,0,1.9-0.9,1.9-1.9V25.7
		C47.2,24.7,46.4,23.8,45.3,23.8z"/>
	<g>
		<linearGradient id="SVGID_3_" gradientUnits="userSpaceOnUse" x1="29.6446" y1="13.5967" x2="29.4458" y2="46.594">
			<stop  offset="0" style="stop-color:#1AB5E9"/>
			<stop  offset="1" style="stop-color:#0166FE"/>
		</linearGradient>
		<path class="st3" d="M18,47.2c-1.3,0-2.2-1-2.2-2.3V26.3c0-1.5,1.1-3,2.5-3.6L40,13.8c0.4-0.2,0.7-0.2,1.1-0.2
			c1.3,0,2.2,1,2.2,2.3v18.6c0,1.5-1.1,3-2.5,3.6L19.1,47C18.7,47.1,18.3,47.2,18,47.2C18,47.2,18,47.2,18,47.2z M38.2,26.1
			c-0.1,0-0.2,0-0.3,0.1c-0.8,0.3-1.4,1.1-1.4,1.9c0,0.5,0.3,0.5,0.4,0.5c0.1,0,0.2,0,0.4-0.1c0.8-0.3,1.4-1.1,1.4-1.9
			C38.6,26.1,38.3,26.1,38.2,26.1z"/>
		<path class="st0" d="M41.1,14.6c0.7,0,1.2,0.5,1.2,1.3v18.6c0,1-0.8,2.2-1.9,2.7L18.7,46c-0.3,0.1-0.5,0.2-0.7,0.2
			c-0.7,0-1.2-0.5-1.2-1.3V26.3c0-1,0.8-2.2,1.9-2.7l21.7-8.9C40.7,14.6,40.9,14.6,41.1,14.6 M36.8,29.5c0.2,0,0.4,0,0.7-0.1
			c1.2-0.4,2.1-1.6,2.1-2.8c0-0.9-0.6-1.5-1.4-1.5c-0.2,0-0.4,0-0.7,0.1c-1.2,0.4-2.1,1.6-2.1,2.8C35.4,28.9,36,29.5,36.8,29.5
			 M41.1,12.6c-0.5,0-1,0.1-1.5,0.3l-21.7,8.9c-1.8,0.7-3.1,2.7-3.1,4.5v18.6c0,1.9,1.4,3.3,3.2,3.3c0.5,0,1-0.1,1.5-0.3l21.7-8.9
			c1.8-0.7,3.1-2.7,3.1-4.5V15.8C44.3,14,42.9,12.6,41.1,12.6L41.1,12.6z"/>
	</g>
</g>
<g id="step3">
</g>
<g id="step4">
</g>
</svg>
